<svg width="825" height="201" viewBox="0 0 825 201" fill="none" xmlns="http://www.w3.org/2000/svg">
<path d="M453.522 185.986C448.745 185.986 444.022 184.602 439.352 181.835C434.788 179.175 428.95 175.024 421.839 169.384C416.532 165.127 411.968 161.668 408.147 159.008C404.432 156.454 400.345 154.272 395.887 152.463C391.536 150.654 387.078 149.749 382.514 149.749C380.922 149.749 379.701 149.802 378.852 149.909L402.574 39.2836C395.463 42.157 389.944 46.5735 386.016 52.5331C382.195 58.3863 380.285 65.5697 380.285 74.0835C380.285 78.0211 380.656 80.788 381.399 82.3844C382.142 83.8743 382.514 84.7256 382.514 84.9385C376.782 84.9385 372.484 83.7678 369.618 81.4266C366.858 78.9789 365.478 74.9881 365.478 69.4541C365.478 62.6432 368.238 56.045 373.757 49.6597C379.383 43.168 386.547 37.9533 395.251 34.0157C403.954 29.9717 412.658 27.9497 421.361 27.9497C422.847 27.9497 424.97 28.0561 427.73 28.269L403.211 142.885C406.183 143.63 409.208 144.694 412.286 146.078C415.47 147.568 419.291 149.536 423.749 151.984C430.648 155.709 436.539 158.529 441.422 160.445C446.304 162.467 451.399 163.478 456.706 163.478C461.482 163.478 465.94 162.626 470.08 160.924C469.23 168.692 467.32 174.812 464.348 179.281C461.482 183.751 457.873 185.986 453.522 185.986Z" fill="#333333"/>
<path d="M448.094 146.716C440.239 146.716 434.03 144.694 429.466 140.65C424.902 136.606 422.62 130.221 422.62 121.494C422.62 114.258 424.106 106.223 427.078 97.3898C430.05 88.5568 434.826 80.9477 441.407 74.5624C447.987 68.0707 456.266 64.8248 466.244 64.8248C479.83 64.8248 486.623 73.3385 486.623 90.366V90.5256C486.941 90.632 487.525 90.6852 488.374 90.6852C491.877 90.6852 495.91 89.7807 500.474 87.9715C505.038 86.0559 509.177 83.7678 512.892 81.1073L514.325 85.4174C511.247 88.7164 507.214 91.5366 502.225 93.8779C497.343 96.1127 491.983 97.7091 486.145 98.6669C485.296 108.351 483.12 116.812 479.617 124.048C476.115 131.285 471.604 136.872 466.084 140.81C460.565 144.747 454.568 146.716 448.094 146.716ZM454.462 132.349C457.009 132.349 459.557 130.913 462.104 128.039C464.652 125.059 466.88 121.069 468.791 116.067C470.702 110.959 472.081 105.318 472.93 99.1458C470.065 98.5072 468.632 96.2724 468.632 92.4412C468.632 88.0779 470.277 85.2045 473.567 83.821C473.355 80.3091 472.824 77.9147 471.975 76.6376C471.126 75.2541 469.64 74.5624 467.517 74.5624C464.015 74.5624 460.618 77.1165 457.328 82.2247C454.037 87.333 451.384 93.4522 449.367 100.582C447.351 107.713 446.342 113.992 446.342 119.419C446.342 124.527 446.926 127.986 448.094 129.795C449.261 131.498 451.384 132.349 454.462 132.349Z" fill="#333333"/>
<path d="M519.651 185.986C514.557 185.986 510.311 184.656 506.914 181.995C503.518 179.334 501.82 175.503 501.82 170.501C501.82 164.435 504.261 159.54 509.143 155.815C514.026 152.197 520.235 149.164 527.771 146.716L529.682 138.096C526.604 141.502 523.472 143.843 520.288 145.12C517.104 146.397 513.867 147.035 510.576 147.035C505.482 147.035 501.342 145.439 498.158 142.247C495.08 139.054 493.541 134.265 493.541 127.88C493.541 125.219 493.965 121.76 494.814 117.503L505.641 66.2615H528.567L517.104 120.537C516.786 121.814 516.626 123.144 516.626 124.527C516.626 129.21 518.218 131.551 521.403 131.551C524.162 131.551 526.604 130.381 528.726 128.039C530.849 125.592 532.547 122.399 533.821 118.461L544.966 66.2615H567.892L552.13 140.331C557.225 138.628 561.311 136.074 564.389 132.669C567.468 129.263 570.068 124.208 572.191 117.503H578.878C576.012 126.975 572.138 133.946 567.255 138.415C562.373 142.779 556.854 145.758 550.697 147.355L548.309 158.848C546.186 169.171 542.525 176.248 537.324 180.079C532.123 184.017 526.232 185.986 519.651 185.986ZM515.989 173.534C517.794 173.534 519.545 172.311 521.243 169.863C522.942 167.415 524.268 163.903 525.224 159.327L526.179 154.698C515.777 158.529 510.576 163.052 510.576 168.267C510.576 169.65 511.054 170.874 512.009 171.938C512.964 173.002 514.291 173.534 515.989 173.534Z" fill="#333333"/>
<path d="M591.348 147.035C585.298 147.035 580.257 144.96 576.223 140.81C572.19 136.659 570.173 130.168 570.173 121.335C570.173 113.459 571.712 105.212 574.79 96.5917C577.975 87.8651 582.645 80.522 588.801 74.5624C595.063 68.4963 602.493 65.4633 611.09 65.4633C615.442 65.4633 618.679 66.2083 620.802 67.6982C622.925 69.1881 623.986 71.1569 623.986 73.6046V74.722L625.738 66.2615H648.664L637.201 120.537C636.776 122.133 636.564 123.836 636.564 125.645C636.564 130.221 638.74 132.509 643.092 132.509C646.064 132.509 648.611 131.125 650.734 128.358C652.963 125.592 654.714 121.973 655.988 117.503H662.675C658.747 128.997 653.865 136.819 648.027 140.969C642.296 145.013 636.511 147.035 630.673 147.035C626.215 147.035 622.607 145.812 619.847 143.364C617.193 140.81 615.601 137.138 615.071 132.349C611.993 136.713 608.543 140.278 604.722 143.045C601.007 145.705 596.549 147.035 591.348 147.035ZM601.697 131.551C604.351 131.551 606.951 130.327 609.498 127.88C612.152 125.325 613.956 121.867 614.911 117.503L622.554 81.4266C622.554 80.0431 622.023 78.7128 620.961 77.4358C619.9 76.0523 618.255 75.3605 616.026 75.3605C611.78 75.3605 607.959 77.8614 604.563 82.8633C601.166 87.7587 598.513 93.7183 596.602 100.742C594.692 107.659 593.736 113.779 593.736 119.1C593.736 124.421 594.479 127.826 595.965 129.316C597.558 130.806 599.468 131.551 601.697 131.551Z" fill="#333333"/>
<path d="M671.808 147.035C666.713 147.035 662.574 145.439 659.39 142.247C656.312 139.054 654.773 134.265 654.773 127.88C654.773 125.219 655.197 121.76 656.046 117.503L673.082 37.5277L696.645 34.335L678.336 120.537C677.911 122.133 677.699 123.836 677.699 125.645C677.699 127.773 678.177 129.316 679.132 130.274C680.193 131.125 681.891 131.551 684.227 131.551C687.305 131.551 690.17 130.274 692.824 127.72C695.477 125.059 697.388 121.654 698.555 117.503H705.242C701.315 128.997 696.273 136.819 690.117 140.969C683.961 145.013 677.858 147.035 671.808 147.035Z" fill="#333333"/>
<path d="M714.254 147.035C709.159 147.035 705.02 145.439 701.835 142.247C698.757 139.054 697.218 134.265 697.218 127.88C697.218 125.219 697.643 121.76 698.492 117.503L708.045 72.6468H702.791L704.064 66.2615H709.318L714.095 44.2322L737.658 41.0396L732.245 66.2615H741.797L740.524 72.6468H730.971L720.782 120.537C720.357 122.133 720.145 123.836 720.145 125.645C720.145 127.773 720.622 129.316 721.578 130.274C722.639 131.125 724.337 131.551 726.672 131.551C729.75 131.551 732.616 130.274 735.27 127.72C737.923 125.059 739.834 121.654 741.001 117.503H747.688C743.761 128.997 738.719 136.819 732.563 140.969C726.407 145.013 720.304 147.035 714.254 147.035Z" fill="#333333"/>
<path d="M765.775 185.986C760.68 185.986 756.434 184.656 753.038 181.995C749.641 179.334 747.943 175.503 747.943 170.501C747.943 164.435 750.384 159.54 755.267 155.815C760.149 152.197 766.358 149.164 773.894 146.716L775.805 138.096C772.727 141.502 769.596 143.843 766.412 145.12C763.227 146.397 759.99 147.035 756.7 147.035C751.605 147.035 747.465 145.439 744.281 142.247C741.203 139.054 739.664 134.265 739.664 127.88C739.664 125.219 740.089 121.76 740.938 117.503L751.764 66.2615H774.69L763.227 120.537C762.909 121.814 762.75 123.144 762.75 124.527C762.75 129.21 764.342 131.551 767.526 131.551C770.286 131.551 772.727 130.381 774.85 128.039C776.973 125.592 778.671 122.399 779.944 118.461L791.089 66.2615H814.016L798.254 140.331C803.348 138.628 807.435 136.074 810.513 132.669C813.591 129.263 816.191 124.208 818.314 117.503H825.001C822.135 126.975 818.261 133.946 813.379 138.415C808.496 142.779 802.977 145.758 796.821 147.355L794.433 158.848C792.31 169.171 788.648 176.248 783.447 180.079C778.246 184.017 772.355 185.986 765.775 185.986ZM762.113 173.534C763.917 173.534 765.669 172.311 767.367 169.863C769.065 167.415 770.392 163.903 771.347 159.327L772.302 154.698C761.901 158.529 756.7 163.052 756.7 168.267C756.7 169.65 757.177 170.874 758.133 171.938C759.088 173.002 760.415 173.534 762.113 173.534Z" fill="#333333"/>
<path d="M198.782 39.3183V162.239C198.782 182.893 182.893 199.518 163.032 200.693C162.867 200.693 162.701 200.693 162.536 200.693C162.039 200.693 161.377 200.693 160.881 200.693C160.219 200.693 159.722 200.693 159.226 200.693C159.06 200.693 158.895 200.693 158.729 200.693C139.033 199.518 122.979 182.893 122.979 162.239V39.3183C122.979 18.6637 138.868 2.03924 158.729 0.86377C158.895 0.86377 159.06 0.86377 159.226 0.86377C159.722 0.86377 160.384 0.86377 160.881 0.86377C161.543 0.86377 162.039 0.86377 162.536 0.86377C162.701 0.86377 162.867 0.86377 163.032 0.86377C182.893 2.03924 198.782 18.6637 198.782 39.3183Z" fill="#0A0A9F"/>
<path fill-rule="evenodd" clip-rule="evenodd" d="M122.974 162.243V39.3222C122.974 18.6676 138.863 2.04314 158.558 0.867676L35.7501 7.9205C15.7234 9.09597 0 26.0563 0 46.3751V69.2127C0 73.2429 2.48263 76.9372 6.28935 77.9448C16.2199 80.6315 23.5024 89.8674 23.5024 100.782C23.5024 111.698 16.2199 120.765 6.28935 123.62C2.48263 124.796 0 128.322 0 132.352V155.19C0 175.676 15.7234 192.469 35.7501 193.644L158.558 200.697C138.863 199.522 122.974 182.897 122.974 162.243ZM70.5146 100.612C70.3491 95.742 66.3768 91.7119 61.4115 91.7119C56.4462 91.7119 52.474 95.91 52.6395 100.948C52.805 105.817 56.7772 109.848 61.7425 109.848C66.5423 109.68 70.5146 105.65 70.5146 100.612ZM61.4115 139.234C66.3768 139.234 70.3491 143.264 70.5146 148.134C70.5146 153.172 66.5423 157.202 61.7425 157.37C56.7772 157.37 52.805 153.339 52.6395 148.47C52.474 143.432 56.4462 139.402 61.4115 139.234ZM70.5146 52.7503C70.3491 47.8805 66.3768 43.8503 61.4115 43.8503C56.4462 44.0182 52.474 48.0484 52.6395 53.0861C52.805 57.9559 56.7772 61.9861 61.7425 61.9861C66.5423 61.8182 70.5146 57.788 70.5146 52.7503Z" fill="#FF1E3B"/>
<path fill-rule="evenodd" clip-rule="evenodd" d="M321.59 46.2047V155.019C321.59 175.506 305.866 192.298 285.84 193.474L163.031 200.527C182.893 199.351 198.782 182.727 198.782 162.072V39.1519C198.782 18.4972 182.893 1.87273 163.031 0.697266L285.84 7.75009C305.866 9.09348 321.59 25.8859 321.59 46.2047ZM292.623 39.3218C292.623 34.1162 288.485 30.254 283.52 30.254C278.554 30.254 274.748 34.452 274.748 39.3218V57.4576V57.6256C274.748 62.6633 278.885 66.6935 283.851 66.5255C288.816 66.5255 292.623 62.3274 292.623 57.4576V39.3218ZM292.623 143.938V161.906C292.623 167.112 288.65 171.142 283.851 171.142C278.885 171.31 274.748 167.28 274.748 162.242V162.074V143.938C274.748 139.068 278.554 134.87 283.52 134.87C288.485 134.702 292.623 138.733 292.623 143.77V143.938Z" fill="#119AFF"/>
</svg>
